# File created by Blade
# Date/Time:  Wed Apr 08 17:31:39 2015
# Frame Rate: 120.000 fps
#------------------------------------------------------
:FULLY-SPECIFIED
:DEGREES
919
root 0.748839 35.421809 0.009072 -528.011712 -85.091297 498.059924
Spine 60.581049 -1.444726 -2.850422
Head -5.932533 8.637504 1.772453
LeftShoulder -4.578007 12.883800 22.742812
LeftArm 22.740523 -7.818278 -81.076937
LeftForeArm 21.782681 -0.000000 29.749386
LeftHand -11.897391 -0.000000 -4.895221
LeftHandThumb1 -26.253704 0.000000 33.147579
RightShoulder -23.827587 -43.775981 -4.597035
RightArm 55.839245 -1.147393 55.457940
RightForeArm 2.849084 -0.000000 30.571314
RightHand 2.366362 -0.000000 2.009505
RightHandThumb1 -24.326973 -0.000000 -32.862282
LeftUpLeg 26.114849 12.231861 13.502484
LeftLeg 23.215282 -0.000000 -0.000000
LeftFoot -14.732999 -0.070598 -11.763379
LeftToeBase 5.226179 -0.000000 -0.000000
RightUpLeg 25.453208 -15.446213 -24.465205
RightLeg 23.248801 -0.000000 -0.000000
RightFoot -14.935934 12.345044 16.161080
RightToeBase 10.443025 -0.000000 -0.000000
920
root 0.848734 35.504915 0.004430 -525.750546 -85.093698 497.705873
Spine 57.941981 -1.406516 -2.776326
Head -5.830341 8.745936 1.780993
LeftShoulder -4.687761 12.964404 22.544940
LeftArm 22.583159 -8.059216 -80.551419
LeftForeArm 22.041103 -0.000000 29.811265
LeftHand -11.924242 -0.000000 -5.035738
LeftHandThumb1 -26.253704 0.000000 33.147579
RightShoulder -24.094602 -43.710580 -4.207148
RightArm 55.667823 -0.728618 55.589977
RightForeArm 2.652920 -0.000000 30.128242
RightHand 2.376954 -0.000000 2.008946
RightHandThumb1 -24.326973 -0.000000 -32.862282
LeftUpLeg 24.755469 12.790939 13.128553
LeftLeg 21.850278 -0.000000 -0.000000
LeftFoot -13.968843 -0.177135 -11.820203
LeftToeBase 5.352851 -0.000000 -0.000000
RightUpLeg 23.951683 -15.829720 -23.577073
RightLeg 22.123865 -0.000000 -0.000000
RightFoot -14.373447 11.695577 16.431081
RightToeBase 10.474210 -0.000000 -0.000000
921
root 0.945239 35.584366 -0.002815 -523.493690 -85.131760 497.325576
Spine 55.313067 -1.403963 -2.713897
Head -5.681522 8.875558 1.779028
LeftShoulder -4.848382 13.065909 22.343053
LeftArm 22.464752 -8.327181 -80.030847
LeftForeArm 22.372826 0.000000 29.834720
LeftHand -11.947431 -0.000000 -5.176215
LeftHandThumb1 -26.253704 0.000000 33.147579
RightShoulder -24.390281 -43.708617 -3.802067
RightArm 55.560910 -0.285015 55.692874
RightForeArm 2.556553 0.000000 29.678395
RightHand 2.457916 -0.000000 2.285348
RightHandThumb1 -24.326973 -0.000000 -32.862282
LeftUpLeg 23.397138 13.307407 12.758978
LeftLeg 20.521312 -0.000000 -0.000000
LeftFoot -13.191197 -0.305027 -11.930570
LeftToeBase 5.447810 -0.000000 -0.000000
RightUpLeg 22.494083 -16.173672 -22.680661
RightLeg 20.988192 -0.000000 -0.000000
RightFoot -13.819038 11.002364 16.706609
RightToeBase 10.515537 -0.000000 -0.000000
922
root 1.042600 35.659046 -0.014125 -521.655032 -85.218433 497.359079
Spine 52.681417 -1.441385 -2.631563
Head -5.529725 9.028014 1.806776
LeftShoulder -5.038059 13.210645 22.147422
LeftArm 22.380683 -8.603983 -79.498652
LeftForeArm 22.621920 -0.000000 29.860197
LeftHand -11.958478 -0.000000 -5.327220
LeftHandThumb1 -26.253704 0.000000 33.147579
RightShoulder -24.649019 -43.660930 -3.432827
RightArm 55.416912 0.181460 55.767508
RightForeArm 2.228978 -0.000000 29.230342
RightHand 2.407726 -0.000000 2.483711
RightHandThumb1 -24.326973 -0.000000 -32.862282
LeftUpLeg 22.022905 13.785646 12.425049
LeftLeg 19.210636 -0.000000 -0.000000
LeftFoot -12.458826 -0.423358 -12.027553
LeftToeBase 5.621058 -0.000000 -0.000000
RightUpLeg 21.059067 -16.526463 -21.747634
RightLeg 19.838148 -0.000000 -0.000000
RightFoot -13.273389 10.316982 16.976074
RightToeBase 10.670309 -0.000000 -0.000000
